<?xml version="1.0" encoding="UTF-8"?>
<svg width="24px" height="24px" viewBox="0 0 24 24" version="1.1" xmlns="http://www.w3.org/2000/svg">
    <path d="M17.0393,11.8538 C17.0273,9.9008 18.5933,8.9438 18.7073,8.8708 C17.8013,7.5198 16.3403,7.3118 15.8333,7.2938 C14.5743,7.1518 13.3613,8.0408 12.7193,8.0408 C12.0613,8.0408 11.0773,7.3088 10.0023,7.3308 C8.6003,7.3518 7.2983,8.1998 6.5983,9.5338 C5.1433,12.2698 6.2283,16.3138 7.6153,18.5178 C8.3173,19.5958 9.1323,20.7908 10.2023,20.7558 C11.2533,20.7168 11.6563,20.0928 12.9153,20.0928 C14.1583,20.0928 14.5443,20.7558 15.6423,20.7338 C16.7703,20.7168 17.4783,19.6558 18.1613,18.5678 C19.0023,17.3068 19.3443,16.0728 19.3613,15.9978 C19.3273,15.9858 17.0543,15.0748 17.0393,11.8538 M15.2833,6.0998 C15.8583,5.3978 16.2443,4.4328 16.1393,3.4778 C15.3143,3.5128 14.2753,4.0398 13.6733,4.7238 C13.1403,5.3248 12.6753,6.3248 12.7973,7.2508 C13.7213,7.3228 14.6823,6.7848 15.2833,6.0998" fill="#000000"/>
</svg> 